# xmcd
#
# Track frame offsets:
#	150
#	20475
#	50255
#	65984
#	90251
#	108199
#	136512
#	165075
#	186167
#	196929
#	210922
#	223595
#	241976
#	259631
#
# Disc length: 3728 seconds
#
# Revision: 0
# Processed by: cddbd v1.5.2PL0 Copyright (c) Steve Scherf et al.
# Submitted via: dBpowerAMP V4.0
#
DISCID=af0e8e0e
DTITLE=Dicky Greenwood - No. 5 (Live)
DYEAR=2007
DGENRE=Blues
TTITLE0=Let Your Hair Down
TTITLE1=Am I Losing You
TTITLE2=Help Me Out
TTITLE3=Small Talk
TTITLE4=Soul To Soul
TTITLE5=Accused
TTITLE6=Jump Girl Jump
TTITLE7=Green River
TTITLE8=True Love Is Special
TTITLE9=Left Or Right
TTITLE10=Crazy 'Bout You
TTITLE11=On Your Own
TTITLE12=Blues On The River
TTITLE13=A Change
EXTD=
EXTT0=
EXTT1=
EXTT2=
EXTT3=
EXTT4=
EXTT5=
EXTT6=
EXTT7=
EXTT8=
EXTT9=
EXTT10=
EXTT11=
EXTT12=
EXTT13=
PLAYORDER=
